<svg width="26" height="27" viewBox="0 0 26 27" fill="none" xmlns="http://www.w3.org/2000/svg">
<path fill-rule="evenodd" clip-rule="evenodd" d="M7.08333 3H18.1262C19.7058 3 20.2782 3.174 20.8547 3.501C21.4313 3.828 21.8847 4.308 22.1935 4.9185C22.5023 5.529 22.6667 6.135 22.6667 7.8075V19.5C22.6667 19.8978 22.8159 20.2794 23.0816 20.5607C23.3473 20.842 23.7076 21 24.0833 21C24.4591 21 24.8194 20.842 25.0851 20.5607C25.3507 20.2794 25.5 19.8978 25.5 19.5V7.692C25.5 5.0175 25.2365 4.047 24.7435 3.069C24.2604 2.10271 23.5141 1.31251 22.6015 0.801C21.6778 0.279 20.7612 0 18.2353 0H7.08333C6.70761 0 6.34728 0.158035 6.0816 0.43934C5.81592 0.720644 5.66667 1.10218 5.66667 1.5C5.66667 1.89782 5.81592 2.27936 6.0816 2.56066C6.34728 2.84196 6.70761 3 7.08333 3ZM18.0214 6.501C17.4448 6.174 16.8725 6 15.2929 6H4.54042C2.96083 6 2.3885 6.174 1.81192 6.501C1.24154 6.82071 0.775111 7.31458 0.473167 7.9185C0.164333 8.529 0 9.135 0 10.8075V22.1925C0 23.8635 0.164333 24.471 0.473167 25.0815C0.782 25.692 1.23533 26.172 1.81192 26.499C2.3885 26.826 2.96083 27 4.54042 27H15.2929C16.8711 27 17.4448 26.826 18.0214 26.499C18.598 26.172 19.0513 25.692 19.3602 25.0815C19.669 24.471 19.8333 23.865 19.8333 22.1925V10.8075C19.8333 9.135 19.669 8.529 19.3602 7.9185C19.0582 7.31458 18.5918 6.82071 18.0214 6.501Z" fill="white"/>
</svg>
