<svg width="26" height="28" viewBox="0 0 26 28" fill="none" xmlns="http://www.w3.org/2000/svg">
<path d="M13 18C15.2091 18 17 16.2091 17 14C17 11.7909 15.2091 10 13 10C10.7909 10 9 11.7909 9 14C9 16.2091 10.7909 18 13 18Z" stroke="gray" stroke-width="2"/>
<path d="M15.247 1.19791C14.7791 1 14.1861 1 13 1C11.8139 1 11.2209 1 10.7531 1.19791C10.1294 1.4618 9.6338 1.96795 9.37544 2.60502C9.2575 2.89584 9.21134 3.23405 9.19328 3.72739C9.16674 4.45238 8.80273 5.12346 8.18757 5.48621C7.57243 5.84895 6.82143 5.8354 6.19345 5.49639C5.76613 5.26569 5.45628 5.13741 5.15073 5.09633C4.48137 5.00631 3.80443 5.19158 3.26882 5.61136C2.86711 5.92619 2.57059 6.45077 1.97756 7.49991C1.38452 8.54906 1.088 9.07362 1.0219 9.58638C0.93379 10.27 1.11517 10.9615 1.52617 11.5085C1.71375 11.7583 1.97739 11.9681 2.38657 12.2307C2.9881 12.6168 3.37514 13.2745 3.3751 14C3.37506 14.7255 2.98804 15.3831 2.38656 15.769C1.97733 16.0318 1.71365 16.2417 1.52604 16.4914C1.11505 17.0385 0.933663 17.7298 1.02179 18.4135C1.08787 18.9262 1.38439 19.4509 1.97743 20.5C2.57048 21.5491 2.867 22.0738 3.2687 22.3885C3.80431 22.8083 4.48125 22.9935 5.1506 22.9036C5.45613 22.8625 5.76596 22.7342 6.19326 22.5036C6.82128 22.1645 7.57233 22.151 8.18752 22.5137C8.8027 22.8765 9.16674 23.5476 9.19328 24.2727C9.21135 24.7659 9.2575 25.1042 9.37544 25.395C9.6338 26.032 10.1294 26.5382 10.7531 26.8021C11.2209 27 11.8139 27 13 27C14.1861 27 14.7791 27 15.247 26.8021C15.8706 26.5382 16.3662 26.032 16.6245 25.395C16.7425 25.1042 16.7887 24.766 16.8068 24.2726C16.8332 23.5476 17.1972 22.8765 17.8124 22.5137C18.4275 22.1509 19.1786 22.1645 19.8067 22.5036C20.234 22.7342 20.5438 22.8624 20.8492 22.9034C21.5186 22.9935 22.1956 22.8083 22.7311 22.3885C23.1328 22.0736 23.4294 21.5491 24.0224 20.4999C24.6155 19.4508 24.912 18.9262 24.9781 18.4135C25.0662 17.7298 24.8848 17.0384 24.4738 16.4913C24.2862 16.2416 24.0225 16.0316 23.6133 15.769C23.0119 15.3831 22.6249 14.7254 22.6249 13.9999C22.6249 13.2743 23.0119 12.6169 23.6133 12.231C24.0226 11.9682 24.2863 11.7584 24.474 11.5085C24.8849 10.9615 25.0663 10.2701 24.9782 9.58646C24.9122 9.07372 24.6156 8.54914 24.0225 7.5C23.4295 6.45086 23.133 5.92628 22.7313 5.61145C22.1957 5.19167 21.5187 5.0064 20.8493 5.09642C20.5439 5.1375 20.2341 5.26577 19.8067 5.49644C19.1787 5.83547 18.4276 5.84903 17.8125 5.48625C17.1972 5.12348 16.8332 4.45236 16.8068 3.72732C16.7887 3.23402 16.7425 2.89583 16.6245 2.60502C16.3662 1.96795 15.8706 1.4618 15.247 1.19791Z" stroke="gray" stroke-width="2"/>
</svg>
