<svg width="32" height="32" viewBox="0 0 32 32" fill="none" xmlns="http://www.w3.org/2000/svg">
    <rect width="32" height="32" rx="16" fill="#2D52EC" />
    <path
        d="M15.4463 21.5259C13.758 21.362 12.1237 20.7649 10.8 19.8635L12.0426 18.3298C13.1502 19.1025 14.2037 19.6059 15.4598 19.7815V16.48C12.6234 15.8361 11.2998 14.9113 11.2998 12.9913C11.2998 11.1766 13.0151 9.94737 15.4328 9.77176V8.80005H17.013V9.80688C18.4312 9.95907 19.6603 10.3922 20.7273 11.083L19.6333 12.6635C18.7824 12.1132 17.9045 11.7503 16.986 11.5864V14.7825C19.9439 15.4264 21.2 16.4449 21.2 18.283C21.2 20.121 19.4712 21.3503 16.9995 21.5376V23.2H15.4463V21.5259ZM15.4598 11.481C14.2307 11.563 13.5959 12.1366 13.5959 12.9093C13.5959 13.6 13.9606 14.0566 15.4598 14.443V11.481ZM18.9175 18.3766C18.9175 17.6391 18.5123 17.1825 16.9995 16.7961V19.84C18.2151 19.7581 18.9175 19.2196 18.9175 18.3766Z"
        fill="white" />
</svg>